<svg xmlns="http://www.w3.org/2000/svg" xmlns:xlink="http://www.w3.org/1999/xlink" width="168.93060302734375" height="192.3590087890625" viewBox="0 0 168.93060302734375 192.3590087890625" fill="none"><path stroke="rgba(255, 255, 255, 1)" stroke-width="17.487190061180375" stroke-linejoin="round" stroke-linecap="round" d="M110.695 109.294L84.4644 183.614"></path><path stroke="rgba(255, 255, 255, 1)" stroke-width="17.487190061180375" stroke-linejoin="round" stroke-linecap="round" d="M58.2336 109.294L84.4644 183.614"></path><path stroke="rgba(255, 255, 255, 1)" stroke-width="17.487190061180375" stroke-linejoin="round" stroke-linecap="round" d="M58.2336 109.294L110.695 109.294"></path><path stroke="rgba(255, 255, 255, 1)" stroke-width="17.487190061180375" stroke-linejoin="round" stroke-linecap="round" d="M158.785 139.897L110.695 109.294"></path><path stroke="rgba(255, 255, 255, 1)" stroke-width="17.487190061180375" stroke-linejoin="round" stroke-linecap="round" d="M158.785 52.4614L110.695 109.295"></path><path stroke="rgba(255, 255, 255, 1)" stroke-width="17.487190061180375" stroke-linejoin="round" stroke-linecap="round" d="M158.785 52.4614L84.4644 65.5768"></path><path stroke="rgba(255, 255, 255, 1)" stroke-width="17.487190061180375" stroke-linejoin="round" stroke-linecap="round" d="M110.695 109.295L84.4644 65.5769"></path><path stroke="rgba(255, 255, 255, 1)" stroke-width="17.487190061180375" stroke-linejoin="round" stroke-linecap="round" d="M84.4644 8.74365L84.4644 65.8726"></path><path stroke="rgba(255, 255, 255, 1)" stroke-width="17.487190061180375" stroke-linejoin="round" stroke-linecap="round" d="M10.1445 52.4614L84.465 65.5768"></path><path stroke="rgba(255, 255, 255, 1)" stroke-width="17.487190061180375" stroke-linejoin="round" stroke-linecap="round" d="M58.2336 109.295L84.4644 65.5769"></path><path stroke="rgba(255, 255, 255, 1)" stroke-width="17.487190061180375" stroke-linejoin="round" stroke-linecap="round" d="M58.2342 109.295L10.1445 52.4614"></path><path stroke="rgba(255, 255, 255, 1)" stroke-width="17.487190061180375" stroke-linejoin="round" stroke-linecap="round" d="M58.2342 109.294L10.1445 139.897"></path><path d="M160.187 52.4616L84.4653 8.74365L8.74359 52.4616L8.74359 139.898L84.4653 183.615L160.187 139.898L160.187 52.4616Z" stroke="rgba(255, 255, 255, 1)" stroke-width="17.487190061180375" stroke-linejoin="round" stroke-linecap="round"></path></svg>
